<svg xmlns="http://www.w3.org/2000/svg" xmlns:xlink="http://www.w3.org/1999/xlink" width="1080" zoomAndPan="magnify" viewBox="0 0 810 809.999993" height="1080" preserveAspectRatio="xMidYMid meet" version="1.0"><defs><g/></defs><path fill="#f2ede0" d="M 150.195312 291.414062 C 160.636719 275.648438 180.015625 267.945312 198.523438 267.605469 C 208.972656 266.605469 219.015625 271.476562 226.824219 278.027344 C 235.503906 286.023438 237.863281 298.484375 237.875 309.8125 C 249.820312 306.164062 262.578125 315.203125 266.589844 326.320312 C 270.585938 337.96875 268.976562 351.542969 262.046875 361.789062 C 256.355469 371.023438 245.925781 375.941406 235.945312 379.128906 C 237.570312 389.9375 233.761719 400.746094 228.21875 409.890625 C 221.097656 420.472656 207.027344 422.578125 195.222656 422.113281 C 183.148438 421.671875 173.375 412.730469 167.308594 402.949219 C 163.007812 411.292969 155.601562 418.335938 146.414062 420.878906 C 127.207031 427.667969 103.710938 420.5 92.371094 403.414062 C 86.417969 395.28125 85.074219 384.550781 87.148438 374.855469 C 68.597656 376.621094 56.660156 355.851562 61.167969 339.535156 C 62.902344 332.890625 67.949219 327.921875 72.492188 323.03125 C 76.796875 318.167969 82.304688 314.300781 88.414062 312.070312 C 85.511719 290.0625 110.566406 274.140625 130.441406 277.832031 C 138.6875 279.445312 145.769531 284.730469 150.195312 291.414062 Z M 150.195312 291.414062 " fill-opacity="1" fill-rule="nonzero"/><path fill="#788097" d="M 66.21875 402.929688 C 75.964844 383.589844 97.65625 372.667969 118.480469 370.808594 C 107.683594 375.445312 95.054688 378.175781 85.980469 386.4375 C 75.503906 395.042969 67.511719 407.414062 66.066406 421.058594 C 65.734375 426.6875 71.539062 430.441406 76.773438 429.09375 C 83.070312 427.105469 88.675781 422.589844 91.804688 416.742188 C 93.414062 413.753906 93.308594 409.6875 90.679688 407.300781 C 87.699219 403.816406 82.074219 404.703125 78.503906 407.488281 C 75.785156 409.601562 72.804688 412.453125 75.976562 416.039062 C 76.792969 416.964844 79.160156 416.039062 80.527344 415.277344 C 81.4375 414.773438 82.304688 414.121094 83.226562 413.4375 C 84.023438 413.042969 84.527344 412.949219 84.734375 413.164062 C 84.945312 413.378906 84.898438 416.882812 82.578125 419.261719 C 80.390625 421.503906 77.046875 422.460938 74.050781 420.152344 C 65.453125 414.417969 73.546875 401.253906 82.117188 400.90625 C 91.933594 398.527344 101.71875 409.730469 97.082031 419.152344 C 93.570312 426.621094 86.980469 433.175781 78.828125 435.316406 C 71.160156 437.558594 62.640625 432.089844 60.539062 424.59375 C 59.304688 416.835938 62.953125 409.664062 66.21875 402.929688 Z M 42.914062 368.820312 C 46.652344 366.792969 50.988281 368.347656 53.6875 371.199219 C 56.152344 373.808594 57.25 377.503906 55.265625 380.527344 C 54.796875 381.246094 50.28125 385.527344 47.09375 382.894531 C 45.078125 381.226562 45.4375 378.0625 48.886719 377.019531 C 49.277344 377.605469 48.699219 378.34375 49.101562 378.929688 C 50.636719 377.941406 51.6875 375.921875 49.855469 374.605469 C 44.890625 372.316406 40.257812 378.625 41.308594 383.136719 C 45.039062 392.214844 56.941406 391.640625 64.625 388.628906 C 70.175781 386.945312 74.878906 382.402344 80.71875 381.933594 C 72.148438 393.527344 53.871094 400.320312 41.082031 391.402344 C 34.789062 386.992188 33.78125 377.515625 38.515625 371.992188 C 39.648438 370.667969 41.109375 369.570312 42.914062 368.820312 Z M 75.222656 337.035156 C 80.921875 336.1875 87.988281 341.984375 88.621094 345.917969 C 90.160156 355.53125 83.652344 361.671875 77.425781 360.824219 C 74.4375 360.421875 71.578125 359.070312 71.871094 353.554688 C 72.03125 350.480469 76.507812 347.980469 79.707031 349.046875 C 80.394531 349.273438 81.039062 350.59375 80.894531 350.855469 C 80.777344 351.074219 78.652344 350.652344 77.835938 350.972656 C 77.042969 351.28125 76.054688 351.910156 76.015625 352.753906 C 75.988281 353.320312 76.085938 354.476562 76.730469 354.8125 C 79.683594 356.347656 83.832031 352.632812 83.941406 348.992188 C 83.988281 347.277344 83.785156 345.308594 82.578125 344.019531 C 81.070312 342.410156 78.675781 341.539062 76.441406 342.023438 C 66.109375 344.320312 61.816406 359.5 69.425781 366.859375 C 78.933594 373.496094 91.417969 371.539062 101.851562 368.421875 C 111.449219 366.273438 121.042969 361.71875 131.082031 363.648438 C 133.101562 364.066406 134.253906 364.496094 134.078125 364.765625 C 133.933594 364.976562 132.976562 365.09375 130.976562 365.023438 C 112.03125 365.699219 95.226562 378.632812 75.9375 376.851562 C 69.65625 376.53125 63.53125 372.589844 61.019531 366.78125 C 59.445312 363.835938 58.773438 360.480469 58.882812 357.101562 C 59.183594 347.695312 65.527344 338.140625 75.222656 337.035156 Z M 140.332031 355.382812 C 145.117188 353.671875 150.949219 354.84375 154.585938 357.746094 C 155.796875 358.71875 155.476562 359.386719 153.671875 359.753906 C 150.386719 358.292969 146.5625 357.9375 142.875 357.761719 C 140.101562 358.277344 140.113281 361.496094 142.535156 362.328125 C 144.53125 362.828125 146.546875 363.28125 148.453125 363.976562 C 148.476562 365.789062 146.566406 366.675781 144.824219 367.660156 C 144.058594 368.09375 141.648438 369.902344 142.675781 370.472656 C 146.75 372.726562 155.675781 368.21875 161.949219 365.625 C 156.867188 370.164062 149.570312 375.957031 141.171875 373.796875 C 137.273438 371.71875 138.71875 367.390625 141.84375 365.3125 C 136.296875 364.179688 135.585938 357.460938 140.332031 355.382812 Z M 123.960938 330.667969 C 127.625 329.785156 128.984375 332.117188 128.976562 335.191406 C 128.964844 338.625 127.34375 339.773438 126.667969 339.804688 C 124.15625 339.914062 122.464844 338.328125 121.886719 336.378906 C 121.296875 334.375 121.566406 331.246094 123.960938 330.667969 Z M 176.171875 327.824219 C 177.191406 327.539062 179.480469 328.203125 180.03125 330.128906 C 180.96875 333.425781 179.691406 335.210938 177.6875 335.539062 C 173.242188 336.269531 171.164062 329.222656 176.171875 327.824219 Z M 176.171875 327.824219 " fill-opacity="1" fill-rule="nonzero"/><g fill="#f2ede0" fill-opacity="1"><g transform="translate(271.272499, 381.599679)"><g><path d="M 9.34375 0 L 9.34375 -35.25 L 0.796875 -35.25 L 0.796875 -43.96875 L 12.546875 -43.96875 L 9.34375 -40.84375 L 9.34375 -43.703125 C 9.34375 -49.929688 11.019531 -54.617188 14.375 -57.765625 C 17.726562 -60.910156 22.84375 -62.660156 29.71875 -63.015625 L 34.625 -63.28125 L 35.421875 -54.46875 L 30.265625 -54.203125 C 28.128906 -54.078125 26.363281 -53.703125 24.96875 -53.078125 C 23.570312 -52.460938 22.53125 -51.546875 21.84375 -50.328125 C 21.164062 -49.109375 20.828125 -47.519531 20.828125 -45.5625 L 20.828125 -42.8125 L 19.3125 -43.96875 L 33.28125 -43.96875 L 33.28125 -35.25 L 20.828125 -35.25 L 20.828125 0 Z M 9.34375 0 "/></g></g></g><g fill="#f2ede0" fill-opacity="1"><g transform="translate(305.890428, 381.599679)"><g><path d="M 26.703125 0.890625 C 22.078125 0.890625 18.054688 -0.0390625 14.640625 -1.90625 C 11.222656 -3.78125 8.582031 -6.4375 6.71875 -9.875 C 4.851562 -13.320312 3.921875 -17.359375 3.921875 -21.984375 C 3.921875 -26.671875 4.851562 -30.71875 6.71875 -34.125 C 8.582031 -37.539062 11.222656 -40.179688 14.640625 -42.046875 C 18.054688 -43.921875 22.078125 -44.859375 26.703125 -44.859375 C 31.390625 -44.859375 35.421875 -43.921875 38.796875 -42.046875 C 42.179688 -40.179688 44.804688 -37.523438 46.671875 -34.078125 C 48.546875 -30.640625 49.484375 -26.609375 49.484375 -21.984375 C 49.484375 -17.359375 48.546875 -13.320312 46.671875 -9.875 C 44.804688 -6.4375 42.179688 -3.78125 38.796875 -1.90625 C 35.421875 -0.0390625 31.390625 0.890625 26.703125 0.890625 Z M 26.703125 -8.1875 C 30.203125 -8.1875 32.957031 -9.382812 34.96875 -11.78125 C 36.988281 -14.1875 38 -17.617188 38 -22.078125 C 38 -26.523438 36.988281 -29.921875 34.96875 -32.265625 C 32.957031 -34.609375 30.203125 -35.78125 26.703125 -35.78125 C 23.253906 -35.78125 20.503906 -34.609375 18.453125 -32.265625 C 16.410156 -29.921875 15.390625 -26.523438 15.390625 -22.078125 C 15.390625 -17.617188 16.410156 -14.1875 18.453125 -11.78125 C 20.503906 -9.382812 23.253906 -8.1875 26.703125 -8.1875 Z M 26.703125 -8.1875 "/></g></g></g><g fill="#f2ede0" fill-opacity="1"><g transform="translate(359.285697, 381.599679)"><g><path d="M 6.3125 0 L 6.3125 -43.96875 L 17.09375 -43.96875 L 17.09375 -33.28125 L 16.734375 -33.28125 C 17.617188 -36.726562 19.289062 -39.429688 21.75 -41.390625 C 24.21875 -43.347656 27.410156 -44.441406 31.328125 -44.671875 L 35.515625 -45.03125 L 36.3125 -34.890625 L 29.109375 -34.265625 C 25.484375 -33.910156 22.722656 -32.753906 20.828125 -30.796875 C 18.929688 -28.835938 17.984375 -26.226562 17.984375 -22.96875 L 17.984375 0 Z M 6.3125 0 "/></g></g></g><g fill="#f2ede0" fill-opacity="1"><g transform="translate(396.662385, 381.599679)"><g><path d="M 28.75 0.890625 C 23.53125 0.890625 19.066406 -0.0234375 15.359375 -1.859375 C 11.648438 -3.703125 8.816406 -6.34375 6.859375 -9.78125 C 4.898438 -13.226562 3.921875 -17.296875 3.921875 -21.984375 C 3.921875 -26.429688 4.851562 -30.359375 6.71875 -33.765625 C 8.582031 -37.179688 11.207031 -39.882812 14.59375 -41.875 C 17.976562 -43.863281 21.925781 -44.859375 26.4375 -44.859375 C 30.644531 -44.859375 34.289062 -43.953125 37.375 -42.140625 C 40.46875 -40.328125 42.859375 -37.742188 44.546875 -34.390625 C 46.234375 -31.046875 47.078125 -27.054688 47.078125 -22.421875 L 47.078125 -18.953125 L 13.171875 -18.953125 L 13.171875 -25.8125 L 38.890625 -25.8125 L 37.46875 -24.390625 C 37.46875 -28.484375 36.53125 -31.582031 34.65625 -33.6875 C 32.789062 -35.789062 30.140625 -36.84375 26.703125 -36.84375 C 24.265625 -36.84375 22.15625 -36.289062 20.375 -35.1875 C 18.601562 -34.09375 17.226562 -32.535156 16.25 -30.515625 C 15.269531 -28.503906 14.78125 -26.046875 14.78125 -23.140625 L 14.78125 -22.25 C 14.78125 -18.988281 15.3125 -16.300781 16.375 -14.1875 C 17.445312 -12.082031 19.050781 -10.523438 21.1875 -9.515625 C 23.320312 -8.515625 25.929688 -8.015625 29.015625 -8.015625 C 31.390625 -8.015625 33.804688 -8.335938 36.265625 -8.984375 C 38.734375 -9.640625 40.972656 -10.738281 42.984375 -12.28125 L 46.1875 -4.453125 C 43.988281 -2.734375 41.300781 -1.410156 38.125 -0.484375 C 34.957031 0.429688 31.832031 0.890625 28.75 0.890625 Z M 28.75 0.890625 "/></g></g></g><g fill="#f2ede0" fill-opacity="1"><g transform="translate(447.476885, 381.599679)"><g><path d="M 26.875 0.890625 C 22.25 0.890625 18.210938 -0.0546875 14.765625 -1.953125 C 11.328125 -3.859375 8.660156 -6.53125 6.765625 -9.96875 C 4.867188 -13.40625 3.921875 -17.441406 3.921875 -22.078125 C 3.921875 -26.765625 4.867188 -30.8125 6.765625 -34.21875 C 8.660156 -37.632812 11.328125 -40.257812 14.765625 -42.09375 C 18.210938 -43.9375 22.28125 -44.859375 26.96875 -44.859375 C 29.9375 -44.859375 32.828125 -44.394531 35.640625 -43.46875 C 38.460938 -42.550781 40.765625 -41.289062 42.546875 -39.6875 L 39.15625 -31.421875 C 37.550781 -32.785156 35.769531 -33.820312 33.8125 -34.53125 C 31.863281 -35.238281 29.96875 -35.59375 28.125 -35.59375 C 24.144531 -35.59375 21.070312 -34.421875 18.90625 -32.078125 C 16.738281 -29.734375 15.65625 -26.398438 15.65625 -22.078125 C 15.65625 -17.742188 16.738281 -14.375 18.90625 -11.96875 C 21.070312 -9.5625 24.113281 -8.359375 28.03125 -8.359375 C 29.875 -8.359375 31.785156 -8.710938 33.765625 -9.421875 C 35.753906 -10.140625 37.523438 -11.148438 39.078125 -12.453125 L 42.546875 -4.1875 C 40.703125 -2.644531 38.382812 -1.410156 35.59375 -0.484375 C 32.8125 0.429688 29.90625 0.890625 26.875 0.890625 Z M 26.875 0.890625 "/></g></g></g><g fill="#f2ede0" fill-opacity="1"><g transform="translate(491.439007, 381.599679)"><g><path d="M 21.265625 0.890625 C 18.066406 0.890625 15.207031 0.28125 12.6875 -0.9375 C 10.164062 -2.15625 8.175781 -3.816406 6.71875 -5.921875 C 5.257812 -8.023438 4.53125 -10.382812 4.53125 -13 C 4.53125 -16.257812 5.421875 -18.851562 7.203125 -20.78125 C 8.984375 -22.707031 11.800781 -24.113281 15.65625 -25 C 19.519531 -25.894531 24.566406 -26.34375 30.796875 -26.34375 L 36.046875 -26.34375 L 36.046875 -19.578125 L 31.15625 -19.578125 C 28.363281 -19.578125 26.003906 -19.472656 24.078125 -19.265625 C 22.148438 -19.054688 20.578125 -18.726562 19.359375 -18.28125 C 18.140625 -17.84375 17.25 -17.238281 16.6875 -16.46875 C 16.125 -15.695312 15.84375 -14.742188 15.84375 -13.609375 C 15.84375 -11.597656 16.550781 -10.023438 17.96875 -8.890625 C 19.394531 -7.765625 21.359375 -7.203125 23.859375 -7.203125 C 25.867188 -7.203125 27.675781 -7.675781 29.28125 -8.625 C 30.882812 -9.582031 32.175781 -10.875 33.15625 -12.5 C 34.132812 -14.132812 34.625 -15.960938 34.625 -17.984375 L 34.625 -27.953125 C 34.625 -30.910156 33.863281 -33.015625 32.34375 -34.265625 C 30.832031 -35.515625 28.414062 -36.140625 25.09375 -36.140625 C 22.664062 -36.140625 20.160156 -35.78125 17.578125 -35.0625 C 14.992188 -34.351562 12.335938 -33.195312 9.609375 -31.59375 L 6.40625 -39.515625 C 8.125 -40.640625 10.082031 -41.585938 12.28125 -42.359375 C 14.476562 -43.128906 16.773438 -43.738281 19.171875 -44.1875 C 21.578125 -44.632812 23.910156 -44.859375 26.171875 -44.859375 C 30.378906 -44.859375 33.9375 -44.203125 36.84375 -42.890625 C 39.75 -41.585938 41.941406 -39.601562 43.421875 -36.9375 C 44.910156 -34.269531 45.65625 -30.796875 45.65625 -26.515625 L 45.65625 0 L 35.421875 0 L 35.421875 -9.171875 L 35.6875 -9.171875 C 35.09375 -7.210938 34.128906 -5.472656 32.796875 -3.953125 C 31.460938 -2.441406 29.832031 -1.253906 27.90625 -0.390625 C 25.976562 0.460938 23.765625 0.890625 21.265625 0.890625 Z M 21.265625 0.890625 "/></g></g></g><g fill="#f2ede0" fill-opacity="1"><g transform="translate(543.232423, 381.599679)"><g><path d="M 23.046875 0.890625 C 20.492188 0.890625 18.03125 0.679688 15.65625 0.265625 C 13.289062 -0.148438 11.113281 -0.710938 9.125 -1.421875 C 7.132812 -2.128906 5.398438 -3.050781 3.921875 -4.1875 L 6.9375 -11.921875 C 8.425781 -10.972656 10.054688 -10.15625 11.828125 -9.46875 C 13.609375 -8.789062 15.445312 -8.285156 17.34375 -7.953125 C 19.25 -7.628906 21.09375 -7.46875 22.875 -7.46875 C 25.957031 -7.46875 28.253906 -7.898438 29.765625 -8.765625 C 31.285156 -9.628906 32.046875 -10.859375 32.046875 -12.453125 C 32.046875 -13.816406 31.582031 -14.851562 30.65625 -15.5625 C 29.738281 -16.28125 28.269531 -16.789062 26.25 -17.09375 L 16.90625 -18.6875 C 12.988281 -19.34375 10.019531 -20.738281 8 -22.875 C 5.988281 -25.007812 4.984375 -27.679688 4.984375 -30.890625 C 4.984375 -33.671875 5.753906 -36.097656 7.296875 -38.171875 C 8.835938 -40.253906 11.0625 -41.890625 13.96875 -43.078125 C 16.875 -44.265625 20.316406 -44.859375 24.296875 -44.859375 C 26.429688 -44.859375 28.550781 -44.664062 30.65625 -44.28125 C 32.757812 -43.894531 34.71875 -43.328125 36.53125 -42.578125 C 38.34375 -41.835938 39.898438 -40.90625 41.203125 -39.78125 L 38 -32.046875 C 36.875 -32.992188 35.539062 -33.789062 34 -34.4375 C 32.457031 -35.09375 30.851562 -35.597656 29.1875 -35.953125 C 27.53125 -36.304688 25.929688 -36.484375 24.390625 -36.484375 C 21.304688 -36.484375 19.019531 -36.023438 17.53125 -35.109375 C 16.050781 -34.191406 15.3125 -32.929688 15.3125 -31.328125 C 15.3125 -30.023438 15.738281 -29 16.59375 -28.25 C 17.457031 -27.507812 18.804688 -26.992188 20.640625 -26.703125 L 29.8125 -25.09375 C 34.03125 -24.382812 37.175781 -23.035156 39.25 -21.046875 C 41.320312 -19.054688 42.359375 -16.375 42.359375 -13 C 42.359375 -10.09375 41.554688 -7.597656 39.953125 -5.515625 C 38.359375 -3.441406 36.117188 -1.851562 33.234375 -0.75 C 30.359375 0.34375 26.960938 0.890625 23.046875 0.890625 Z M 23.046875 0.890625 "/></g></g></g><g fill="#f2ede0" fill-opacity="1"><g transform="translate(589.063377, 381.599679)"><g><path d="M 26.875 0.890625 C 20.882812 0.890625 16.421875 -0.601562 13.484375 -3.59375 C 10.546875 -6.59375 9.078125 -10.941406 9.078125 -16.640625 L 9.078125 -34.984375 L 0.625 -34.984375 L 0.625 -43.96875 L 9.4375 -43.96875 L 9.4375 -56.6875 L 20.640625 -56.6875 L 20.640625 -43.96875 L 34.796875 -43.96875 L 34.796875 -34.984375 L 20.640625 -34.984375 L 20.640625 -17.171875 C 20.640625 -14.328125 21.289062 -12.207031 22.59375 -10.8125 C 23.90625 -9.414062 25.957031 -8.71875 28.75 -8.71875 C 29.757812 -8.71875 30.753906 -8.820312 31.734375 -9.03125 C 32.710938 -9.238281 33.703125 -9.492188 34.703125 -9.796875 L 36.40625 -1.15625 C 35.15625 -0.5 33.679688 0.00390625 31.984375 0.359375 C 30.296875 0.710938 28.59375 0.890625 26.875 0.890625 Z M 26.875 0.890625 "/></g></g></g><g fill="#f2ede0" fill-opacity="1"><g transform="translate(625.995107, 381.599679)"><g><path d="M 21.625 0.890625 C 16.519531 0.890625 12.691406 -0.488281 10.140625 -3.25 C 7.585938 -6.007812 6.3125 -10.03125 6.3125 -15.3125 L 6.3125 -62.75 L 17.890625 -62.75 L 17.890625 -16.015625 C 17.890625 -14.359375 18.125 -12.960938 18.59375 -11.828125 C 19.070312 -10.703125 19.785156 -9.84375 20.734375 -9.25 C 21.679688 -8.65625 22.835938 -8.359375 24.203125 -8.359375 C 24.972656 -8.359375 25.710938 -8.40625 26.421875 -8.5 C 27.140625 -8.59375 27.851562 -8.726562 28.5625 -8.90625 L 28.75 -0.09375 C 27.5625 0.207031 26.398438 0.445312 25.265625 0.625 C 24.140625 0.800781 22.925781 0.890625 21.625 0.890625 Z M 21.625 0.890625 "/></g></g></g><g fill="#f2ede0" fill-opacity="1"><g transform="translate(655.71848, 381.599679)"><g><path d="M 10.59375 16.015625 L 19.765625 -4.265625 L 19.765625 2.3125 L 0 -43.96875 L 12.1875 -43.96875 L 25.09375 -10.765625 L 23.5 -10.765625 L 36.484375 -43.96875 L 48.234375 -43.96875 L 22.515625 16.015625 Z M 10.59375 16.015625 "/></g></g></g></svg>